<?xml version="1.0" encoding="utf-8"?>
<!-- Generator: Adobe Illustrator 17.1.0, SVG Export Plug-In . SVG Version: 6.00 Build 0)  -->
<!DOCTYPE svg PUBLIC "-//W3C//DTD SVG 1.1//EN" "http://www.w3.org/Graphics/SVG/1.1/DTD/svg11.dtd">
<svg version="1.1" id="Instagram" xmlns="http://www.w3.org/2000/svg" xmlns:xlink="http://www.w3.org/1999/xlink" x="0px" y="0px"
	 viewBox="0 0 612 792" enable-background="new 0 0 612 792" xml:space="preserve">
<path fill="#324C4E" d="M520.2,120.6H91.8c-33.7,0-61.2,27.5-61.2,61.2v428.4c0,33.7,27.5,61.2,61.2,61.2h428.4
	c33.7,0,61.2-27.5,61.2-61.2V181.8C581.4,148.1,553.9,120.6,520.2,120.6z M305.5,565c93.6,0,169.5-75.9,169.5-169.5
	c0-10.3-1.3-20.3-3.2-30.1h48.4v220.8c0,11.7-9.5,21.1-21.2,21.1H113c-11.7,0-21.2-9.4-21.2-21.1V365.4h47.4
	c-1.9,9.8-3.2,19.8-3.2,30.1C136,489.1,211.9,565,305.5,565z M199.6,395.5c0-58.5,47.4-105.9,105.9-105.9
	c58.5,0,105.9,47.4,105.9,105.9S364,501.4,305.5,501.4C247,501.4,199.6,454,199.6,395.5z M499,273.6h-49.4
	c-11.7,0-21.2-9.5-21.2-21.2v-49.5c0-11.7,9.5-21.1,21.1-21.1H499c11.8,0,21.2,9.5,21.2,21.1v49.4
	C520.2,264.1,510.7,273.6,499,273.6z"/>
</svg>
