<?xml version="1.0" encoding="utf-8"?>
<!-- Generator: Adobe Illustrator 17.1.0, SVG Export Plug-In . SVG Version: 6.00 Build 0)  -->
<!DOCTYPE svg PUBLIC "-//W3C//DTD SVG 1.1//EN" "http://www.w3.org/Graphics/SVG/1.1/DTD/svg11.dtd">
<svg version="1.1" id="VK" xmlns="http://www.w3.org/2000/svg" xmlns:xlink="http://www.w3.org/1999/xlink" x="0px" y="0px"
	 viewBox="0 0 612 792" enable-background="new 0 0 612 792" xml:space="preserve">
<path fill="#324C4E" d="M544.7,466.3c0,0,49.5,48.9,61.7,71.5c0.3,0.5,0.5,0.9,0.6,1.1c5,8.4,6.2,14.9,3.8,19.7
	c-4.1,8-18.1,12-22.9,12.3c0,0-85,0-87.5,0c-6.1,0-18.8-1.6-34.2-12.2c-11.8-8.2-23.5-21.8-34.9-35c-17-19.7-31.6-36.8-46.5-36.8
	c-1.9,0-3.7,0.3-5.5,0.9c-11.2,3.5-25.5,19.6-25.5,62.2c0,13.3-10.5,20.9-17.9,20.9c0,0-38.2,0-40.1,0c-13.6,0-84.7-4.8-147.7-71.2
	C71.1,418.4,1.8,255.2,1.1,253.8c-4.3-10.6,4.7-16.3,14.5-16.3h88.3c11.8,0,15.7,7.2,18.4,13.6c3.1,7.4,14.7,36.9,33.7,70
	c30.7,53.9,49.6,75.9,64.7,75.9c2.8,0,5.5-0.7,8.1-2.1c19.7-10.8,16-81.2,15.1-95.7c0-2.8,0-31.4-10.1-45.3
	c-7.2-9.9-19.5-13.8-27-15.2c2-2.9,6.2-7.3,11.6-9.9c13.5-6.7,37.9-7.7,62.1-7.7h13.4c26.3,0.4,33,2.1,42.6,4.5
	c19.2,4.6,19.6,17,17.9,59.5c-0.5,12.1-1,25.8-1,41.8c0,3.4-0.2,7.3-0.2,11.1c-0.6,21.8-1.3,46.3,14,56.3c2,1.2,4.3,1.9,6.6,1.9
	c5.3,0,21.3,0,64.5-74.2c19-32.8,33.7-71.4,34.7-74.3c0.9-1.6,3.4-6.2,6.5-8c2.4-1.5,5.6-1.7,7.2-1.7h103.9c11.3,0,19,1.7,20.5,6
	c2.5,6.9-0.5,28.2-47.9,92.3c-8,10.7-15,19.9-21.1,28C499.2,420.6,499.2,423.5,544.7,466.3z"/>
</svg>
